<?xml version="1.0" encoding="UTF-8" standalone="no"?>
<svg
   width="48"
   height="48"
   viewBox="0 0 48 48"
   fill="none"
   version="1.1"
   id="svg15"
   sodipodi:docname="Atlassian.svg"
   inkscape:version="1.2.2 (732a01da63, 2022-12-09)"
   xmlns:inkscape="http://www.inkscape.org/namespaces/inkscape"
   xmlns:sodipodi="http://sodipodi.sourceforge.net/DTD/sodipodi-0.dtd"
   xmlns="http://www.w3.org/2000/svg"
   xmlns:svg="http://www.w3.org/2000/svg">
  <sodipodi:namedview
     id="namedview17"
     pagecolor="#ffffff"
     bordercolor="#000000"
     borderopacity="0.25"
     inkscape:showpageshadow="2"
     inkscape:pageopacity="0.0"
     inkscape:pagecheckerboard="0"
     inkscape:deskcolor="#d1d1d1"
     showgrid="false"
     inkscape:zoom="10.770833"
     inkscape:cx="19.961316"
     inkscape:cy="24.046422"
     inkscape:window-width="1366"
     inkscape:window-height="697"
     inkscape:window-x="-8"
     inkscape:window-y="-8"
     inkscape:window-maximized="1"
     inkscape:current-layer="svg15" />
  <path
     d="M 0,24 C 0,10.7452 10.7452,0 24,0 37.2548,0 48,10.7452 48,24 48,31.511149 44.549509,38.216418 39.147157,42.617173 35.01607,45.982358 29.743651,48 24,48 10.7452,48 0,37.2548 0,24 Z"
     fill="white"
     id="path2"
     style="fill:#000000;fill-opacity:1;filter:url(#filter6566);opacity:0"
     sodipodi:nodetypes="ssssss" />
  <path
     d="M19.0917 20.6362C18.7344 20.2544 18.1775 20.2761 17.9346 20.7618L12.074 32.4833C11.9654 32.7005 11.977 32.9584 12.1046 33.165C12.2323 33.3716 12.4578 33.4973 12.7007 33.4973H20.8624C21.1295 33.5035 21.3752 33.3516 21.4891 33.1099C23.249 29.4712 22.1827 23.9388 19.0917 20.6362Z"
     fill="url(#paint0_linear)"
     id="path4" />
  <path
     d="M23.3918 9.97534C20.1139 15.1688 20.3302 20.9206 22.4893 25.2389L26.4247 33.1099C26.5434 33.3472 26.786 33.4972 27.0514 33.4972H35.2129C35.4558 33.4972 35.6813 33.3715 35.809 33.1649C35.9366 32.9583 35.9482 32.7003 35.8396 32.4831C35.8396 32.4831 24.8597 10.5204 24.5835 9.97088C24.3366 9.47894 23.7093 9.47225 23.3918 9.97534Z"
     fill="#2681FF"
     id="path6" />
  <defs
     id="defs13">
    <linearGradient
       id="paint0_linear"
       x1="18.0852"
       y1="18.5173"
       x2="9.86855"
       y2="27.3434"
       gradientUnits="userSpaceOnUse">
      <stop
         stop-color="#0052CC"
         id="stop8" />
      <stop
         offset="0.923"
         stop-color="#2684FF"
         id="stop10" />
    </linearGradient>
    <filter
       inkscape:collect="always"
       style="color-interpolation-filters:sRGB"
       id="filter6566"
       x="-1.1523227"
       y="-1.1523227"
       width="3.3046453"
       height="3.3046453">
      <feGaussianBlur
         inkscape:collect="always"
         stdDeviation="23.046454"
         id="feGaussianBlur6568" />
    </filter>
  </defs>
</svg>
